<?xml version="1.0" encoding="UTF-8"?><svg id="Layer_1" xmlns="http://www.w3.org/2000/svg" viewBox="0 0 650 250"><defs><style>.cls-1{fill:#f6f6f6;}.cls-2{fill:#e6007e;}</style></defs><path class="cls-1" d="M100.84,145.92c0,.82-.48,1.57-1.24,1.89-3.16,1.31-7.66,2.08-10.97,2.08-17.54,0-29.2-12.66-29.2-28.86s11.66-28.75,29.2-28.75c3.2,0,7.76,.76,10.93,1.99,.78,.3,1.28,1.07,1.28,1.91v11.1c0,1.51-1.57,2.49-2.93,1.85-2.55-1.21-5.7-2.08-9.28-2.08-8.1,0-13.88,6.33-13.88,13.99s5.77,14.1,13.88,14.1c3.5,0,6.72-.87,9.29-2.12,1.35-.65,2.92,.35,2.92,1.86v11.05Z"/><path class="cls-1" d="M135.28,92.27c16.21,0,28.75,12.54,28.75,28.75s-12.54,28.86-28.75,28.86-28.75-12.66-28.75-28.86,12.54-28.75,28.75-28.75Zm0,42.85c7.77,0,13.32-6.44,13.32-14.1s-5.55-13.99-13.32-13.99-13.43,6.33-13.43,13.99,5.77,14.1,13.43,14.1Z"/><path class="cls-1" d="M186.51,99.93c2.89-4.44,7.55-7.66,14.1-7.66,7.77,0,13.88,3.55,16.99,9.99,2.66-5.66,7.99-9.99,16.32-9.99,10.66,0,18.98,8.44,18.98,20.32v34.03c0,1.13-.92,2.05-2.05,2.05h-10.99c-1.13,0-2.05-.92-2.05-2.05v-29.7c0-6.22-3.55-9.88-8.88-9.88s-9.21,3.66-9.21,9.88v29.7c0,1.13-.92,2.05-2.05,2.05h-10.99c-1.13,0-2.05-.92-2.05-2.05v-29.7c0-6.22-3.55-9.88-8.88-9.88s-8.88,3.33-9.21,9.1v30.48c0,1.13-.92,2.05-2.05,2.05h-10.99c-1.13,0-2.05-.92-2.05-2.05v-51.18c0-1.13,.92-2.05,2.05-2.05h10.99c1.13,0,2.05,.92,2.05,2.05v4.5Z"/><path class="cls-1" d="M279.07,99.93c2.89-4.44,7.55-7.66,14.1-7.66,7.77,0,13.88,3.55,16.99,9.99,2.66-5.66,7.99-9.99,16.32-9.99,10.66,0,18.98,8.44,18.98,20.32v34.03c0,1.13-.92,2.05-2.05,2.05h-10.99c-1.13,0-2.05-.92-2.05-2.05v-29.7c0-6.22-3.55-9.88-8.88-9.88s-9.21,3.66-9.21,9.88v29.7c0,1.13-.92,2.05-2.05,2.05h-10.99c-1.13,0-2.05-.92-2.05-2.05v-29.7c0-6.22-3.55-9.88-8.88-9.88s-8.88,3.33-9.21,9.1v30.48c0,1.13-.92,2.05-2.05,2.05h-10.99c-1.13,0-2.05-.92-2.05-2.05v-51.18c0-1.13,.92-2.05,2.05-2.05h10.99c1.13,0,2.05,.92,2.05,2.05v4.5Z"/><path class="cls-1" d="M388.12,141.78c-2.78,4.77-7.55,8.1-14.54,8.1-11.66,0-19.32-8.88-19.32-20.76v-33.7c0-1.13,.92-2.05,2.05-2.05h10.99c1.13,0,2.05,.92,2.05,2.05v29.37c0,6.22,3.55,10.32,9.33,10.32s9.1-3.77,9.44-9.55v-30.14c0-1.13,.92-2.05,2.05-2.05h10.99c1.13,0,2.05,.92,2.05,2.05v51.18c0,1.13-.92,2.05-2.05,2.05h-10.99c-1.13,0-2.05-.92-2.05-2.05v-4.83Z"/><path class="cls-1" d="M428.97,100.37c2.92-4.65,7.41-7.93,14-8.1,11.08-.29,20.08,8.96,20.08,20.04v34.3c0,1.13-.92,2.05-2.05,2.05h-11.1c-1.13,0-2.05-.92-2.05-2.05v-29.37c0-6.11-3.66-10.21-9.44-10.21s-9.1,3.66-9.44,9.55v30.03c0,1.13-.92,2.05-2.05,2.05h-10.99c-1.13,0-2.05-.92-2.05-2.05v-51.18c0-1.13,.92-2.05,2.05-2.05h10.99c1.13,0,2.05,.92,2.05,2.05v4.94Z"/><path class="cls-1" d="M505.01,146.61v-40.36h-6.38c-1.13,0-2.05-.92-2.05-2.05v-8.77c0-1.13,.92-2.05,2.05-2.05h7.27v-10.46c0-.96,.66-1.79,1.6-2l10.11-2.29c1.28-.29,2.51,.69,2.51,2v12.75h7.27c1.13,0,2.05,.92,2.05,2.05v8.77c0,1.13-.92,2.05-2.05,2.05h-7.27v40.36c0,1.13-.92,2.05-2.05,2.05h-10.99c-1.13,0-2.05-.92-2.05-2.05Z"/><path class="cls-1" d="M553.86,144.45l-19.2-48.26c-.54-1.35,.46-2.81,1.91-2.81h12.52c.86,0,1.63,.54,1.93,1.35l11.17,30.62,11.82-30.66c.31-.79,1.07-1.31,1.91-1.31h12.6c1.47,0,2.46,1.5,1.89,2.85l-31.13,73.94c-.32,.76-1.07,1.26-1.89,1.26h-12.95c-1.5,0-2.5-1.56-1.86-2.92l11.28-24.05Z"/><g><path class="cls-1" d="M485.58,148.67h-10.21c-1.35,0-2.45-1.3-2.45-2.9v-49.49c0-1.6,1.1-2.9,2.45-2.9h10.21c1.35,0,2.45,1.3,2.45,2.9v49.49c0,1.6-1.1,2.9-2.45,2.9Z"/><path class="cls-2" d="M483.54,90.54l-5.95-.08c-3.48,0-5.31-4.13-2.97-6.71l3.38-3.55c.76-.84,1.84-1.31,2.96-1.31h13.11c.84,0,1.28,1,.72,1.62l-8.65,9.07c-.73,.62-1.65,.96-2.61,.96Z"/></g></svg>