<svg width="225.74" height="58.23" viewBox="0 0 225.74 58.23" fill="currentColor" xmlns="http://www.w3.org/2000/svg">
    <path d="m15.73 33.63 29.88-3.22c4.32-.42 4.74-1.61 4.74-4.06 0-1.27-1.61-4.57-8.29-4.57h-19.7v-7.7h19.63c11.09 0 17.61 5.76 17.61 14.05v16.42c0 9.4-8.55 13.63-17.69 13.63H15.99c-9.31 0-16-5.93-16-12.11 0-5.58 6.18-11.43 15.74-12.44m.26 17.18h25.88c5.16 0 8.72-2.71 8.72-5.93v-4.15c0-2.79-1.36-3.73-4.49-3.39C32.39 38.95 8.94 39.12 8.94 46c0 2.54 2.12 4.83 7 4.83M71.82 10a5 5 0 1 1 5.33-5 5.14 5.14 0 0 1-5.27 5h-.06m-4.74 4.12h9.4v43.63h-9.4ZM127.93 58.23h-25.94c-13.46 0-17.61-8.55-17.61-12.87V.67h9.23v7.95c0 2.46 3.13 5.5 8 5.5h26.28c9.57 0 17.61 5 17.61 12.78v18.42c0 4.32-4.15 12.87-17.61 12.87m8.38-31.32c0-2.54-3.22-5.33-8.38-5.33h-25.9c-5.16 0-8.38 2.79-8.38 5.33v18.45c0 2.45 3.13 5 8.38 5h25.9c5.25 0 8.38-2.54 8.38-5ZM195.48 38.66l-29.88 3.22c-4.32.42-4.74 1.61-4.74 4.06 0 1.27 1.61 4.57 8.29 4.57h20.35v7.71h-20.26c-11.09 0-17.61-5.76-17.61-14.05V27.74c0-9.4 8.55-13.63 17.69-13.63h25.9c9.31 0 16 5.93 16 12.11 0 5.59-6.18 11.43-15.75 12.44m-.26-17.18h-25.9c-5.16 0-8.72 2.71-8.72 5.92v4.15c0 2.79 1.35 3.72 4.49 3.39 13.71-1.61 37.16-1.78 37.16-8.64 0-2.54-2.12-4.82-7-4.82M216.51.67h9.23V58.2h-9.23z" />
</svg>